PathFileType	4	(X/Y/Z)	13_2_67_p1_0-348_filt_butterworth.trc
DataRate	CameraRate	NumFrames	NumMarkers	Units	OrigDataRate	OrigDataStartFrame	OrigNumFrames
59.0	59.0	6	27	m	59.0	130	348
Frame#	Time	RHip			RKnee			RAnkle			RBigToe			RSmallToe			RHeel			LHip			LKnee			LAnkle			LBigToe			LSmallToe			LHeel			Neck			Head			Nose			RShoulder			RElbow			RWrist			RThumb			RIndex			RPinky			LShoulder			LElbow			LWrist			LThumb			LIndex			LPinky			
		X1	Y1	Z1	X2	Y2	Z2	X3	Y3	Z3	X4	Y4	Z4	X5	Y5	Z5	X6	Y6	Z6	X7	Y7	Z7	X8	Y8	Z8	X9	Y9	Z9	X10	Y10	Z10	X11	Y11	Z11	X12	Y12	Z12	X13	Y13	Z13	X14	Y14	Z14	X15	Y15	Z15	X16	Y16	Z16	X17	Y17	Z17	X18	Y18	Z18	X19	Y19	Z19	X20	Y20	Z20	X21	Y21	Z21	X22	Y22	Z22	X23	Y23	Z23	X24	Y24	Z24	X25	Y25	Z25	X26	Y26	Z26	X27	Y27	Z27	
130	2.2033898305084745	0.264847411732121	1.0185638468724554	0.7851376569796833	0.3182374437601721	0.9026891790271374	1.0870935662515258	0.26001495381221695	1.221572955791248	1.4128342976762729	0.2618092564082326	1.050774253972148	1.456093546030293	0.32299876383758663	1.0793536587468486	1.44557179455252	0.24316456642835912	1.3493526559635982	1.4597607198070577	0.07528247064158429	1.010762085854954	0.8068879159021138	0.14081909653520502	0.9673277428883946	1.1267181850175683	0.07399975373183904	1.2230542735089611	1.4173687096035563	0.12431004753596188	1.0049347503828712	1.4544978745017465	0.0840804281354632	0.9960571421082037	1.4363164704526574	0.06874213156216374	1.2919569460754228	1.4311959222880635	0.19189607547651444	0.5724292680294353	0.4354510328626159	0.20196961965513374	0.40803248617099763	0.22199511912939324	0.2226814390025379	0.4379815496888354	0.36832495168043217	0.3303772779564821	0.6788325429609586	0.4401449296336651	0.3469297071133105	0.8253650048498214	0.6383594608603255	0.41238810695728456	0.6411859840611618	0.7082914549642825	0.3972042007788701	0.5096270823811201	0.6962188766598653	0.4102828409449456	0.4728777464734813	0.7128360252561701	0.4101279234395754	0.5466299505758705	0.7588115161073238	0.05954896313576686	0.5966747942890559	0.4929444462987642	0.05220561475594804	0.7368823512598457	0.736399159288682	0.11384915645211573	0.5926532270279349	0.7633938796320842	0.14106317525047307	0.4747228865466931	0.706647333435152	0.13677215153431937	0.4479721363781579	0.7308701166828485	0.14333720827423685	0.5240986708810323	0.7716040558863119
131	2.2203389830508478	0.2693155301657207	1.0130309046444472	0.780542129139888	0.31825290808494827	0.9020903285788131	1.0836910024947641	0.2590376801500477	1.2303752956984249	1.4137755496877529	0.26077068979563306	1.0441354842026827	1.4548085164481679	0.32184056396146077	1.0833176197079772	1.4462287991611462	0.2435824468324437	1.3508387740202545	1.4581600194587825	0.07507868611458668	1.008323603653561	0.8008118899673331	0.1397484167031629	0.9697031088071724	1.1223667753404702	0.07394583045323377	1.2231373148927371	1.4175553939905416	0.1239438601617702	0.9995506752267664	1.4544634266439416	0.08370419793900832	0.9958955365411573	1.4369820382760017	0.06800927548887367	1.3013318395468518	1.4325245132403281	0.19148801792219505	0.5667260052831928	0.42514553922496784	0.19968589354174843	0.40360395401966753	0.21152789814100062	0.217926315606358	0.4408375440682274	0.35430597631081373	0.33074261072613165	0.672934874655652	0.43220050680171124	0.35018930741734877	0.8223525890725704	0.6309475840427238	0.4161744107649312	0.6278498569470345	0.699992794658841	0.39718201813519194	0.505663674878416	0.677040550023934	0.4094952690912257	0.463531274077267	0.7021586101385067	0.4049717636695255	0.5363408966204133	0.7489204127278623	0.05883325591535358	0.59102651472709	0.48018083301407044	0.05661954649320054	0.7296204542510042	0.7256688764370826	0.1143154280704105	0.5858852124083683	0.7509509324829449	0.14366359186469638	0.4756440886808385	0.6969038120933998	0.13748250664668257	0.4438633455794979	0.7165816535701435	0.13945743614852232	0.5211648554055376	0.7637317026393583
132	2.23728813559322	0.2717612125292307	1.0085158951243693	0.7762706378887172	0.3183571951550933	0.9009595241031827	1.0805206081511747	0.2584042376880794	1.2377392903832491	1.4142582641690231	0.26057952921384486	1.0419078535483413	1.4537923663984886	0.3210348526616243	1.0884109354695506	1.4469557978948213	0.24410161384053675	1.355198893693532	1.4570021340499406	0.07490679087154738	1.0033753403065155	0.7951782336710718	0.1387733848322528	0.9700429484380022	1.1186161384101274	0.07387968334006628	1.2232460539505146	1.4177470021783902	0.1227663562107872	0.994984712737587	1.4542397128196811	0.08336579976057167	0.995586740275688	1.4376070237261067	0.06765764734286217	1.3049371701231618	1.4331353149633441	0.19029023606209472	0.5615058696760236	0.4125726987163615	0.19849538866667713	0.4014014564307775	0.20060632322600558	0.21354920539868522	0.4388706513939007	0.3399953803295978	0.3319504598791976	0.6666450399820175	0.425490094322185	0.35549356369481233	0.8273013617301812	0.6259145815674356	0.4177618322358052	0.6218233981118055	0.6935739966634893	0.3983831727328261	0.4936780400251547	0.6582740203173663	0.409422743396479	0.4566121469723458	0.6898175579375504	0.39926935718465456	0.5227592983528935	0.7393241507096054	0.05863391737822981	0.5866508633091053	0.4686932167465494	0.060040493915328036	0.7219186224787183	0.7111681325431827	0.1140758305709745	0.577504382704497	0.7383734770383974	0.1455029481683068	0.4761462571015358	0.6870306066148857	0.1373195269777528	0.43853774298429804	0.7037545201004937	0.13696173296254643	0.5195358865160447	0.7553296454363001
133	2.254237288135593	0.27270214183130603	1.0057277189023293	0.7722796110937251	0.31866166786889655	0.90262517135295	1.076762763784535	0.25858660673311784	1.240727216971085	1.4123020860749063	0.2608078841951764	1.0417120907591675	1.452652266011382	0.3209918155807409	1.0911644328080163	1.4472996265898186	0.24462299002230511	1.361013420862387	1.4575786417475227	0.07497542767808696	0.9960844037613787	0.7901320678357664	0.13745177031795125	0.9685955062660012	1.1142412470241774	0.07377319682892253	1.2232080038739928	1.4174608967936102	0.12080839604188236	0.9913954211193838	1.4535471261763584	0.08314967477234496	0.9955967674526535	1.4379421511216024	0.06757697580706501	1.3048984537004196	1.433211281527809	0.18827460370472007	0.5588013944639294	0.3987595459818519	0.19772797114212562	0.4017091056652671	0.19012303829178612	0.20927953068293692	0.4346211702270212	0.3271122183444825	0.3339702094702766	0.6586234059396618	0.4190377712747981	0.3618432126234074	0.8357956939432862	0.6214978303243673	0.41867206922213085	0.6183558046876815	0.6881529566164198	0.39918199332599563	0.47816499512968647	0.6439314665356074	0.4093742802167552	0.4528493601321837	0.6768053502717533	0.39582744524241364	0.5077822159757139	0.7304139550645311	0.05886337387002561	0.5836686195782297	0.45916075264317563	0.06044694716947148	0.7159287484134264	0.694566176761815	0.11279800438694022	0.5708671475250229	0.7263498461072015	0.14591478130435961	0.4732277586942521	0.6762000785867425	0.13670050844623194	0.4346041053964629	0.6931089865342174	0.13543067259663238	0.5177801097777591	0.7438116549036676
134	2.2711864406779663	0.2734089327372723	1.0038910915264574	0.7679076120817181	0.3190242429224712	0.9094189062916693	1.0721521023308498	0.25986452106374763	1.2396101962123032	1.4073298725150947	0.2609795357792117	1.04112372857642	1.4514187516306702	0.32146066600152573	1.090209630109685	1.4473586160093455	0.2450119094022175	1.3651819910057879	1.4587580559044073	0.07523590327920614	0.9880899792084605	0.7853712541946256	0.13560813520268342	0.9658164787143039	1.1077292968805523	0.07369846799545476	1.2228546751999831	1.4160632333717242	0.11898599599536762	0.9885257814869661	1.4526575128496992	0.0827275887785987	0.9971334613031154	1.4383437854083134	0.06768739920711117	1.3041466957258994	1.4331318534439452	0.18629682979380544	0.558142849181098	0.38572284241459115	0.19608409452608755	0.4028853386205979	0.18042412060668728	0.20507254970925293	0.4308883417198856	0.31618523974070034	0.3359300792833954	0.649883515380212	0.41143900681822504	0.3688376698574415	0.8410059163079913	0.6158366099348155	0.41966677706760125	0.6127404623153139	0.6826424268057347	0.39873414343604363	0.46828997761012825	0.635043997606682	0.4090331695581284	0.4512657335542545	0.6649643513436027	0.3952675193887883	0.49536456600017337	0.7218244428939367	0.05923699365424244	0.5815742216802959	0.45124146866743076	0.057911979877370554	0.7119241144167554	0.6783770276843544	0.11125184051309159	0.5665813216246416	0.7144382224349662	0.146051188875731	0.4650858803700027	0.6640585880615675	0.13621239658892348	0.4336484491390923	0.6848718825781277	0.13379093103169887	0.5123754850874742	0.7283373492082231
135	2.288135593220339	0.2744343329230341	1.0015653482352236	0.7625516776136022	0.3194311782695145	0.9192085578188555	1.0673867998651565	0.2614461117902535	1.2367345357775743	1.4018423376903795	0.26080766557667956	1.039487083275613	1.450547142601132	0.3219861805575921	1.085766565545948	1.4473920816195178	0.24502061541559	1.3661145828349979	1.4583943973913542	0.07550074116861023	0.9818310671885665	0.78025179298246	0.13343166810163853	0.9623834479905646	1.0995162185796339	0.07380631751600364	1.2225118982718204	1.413558901074083	0.11831380366428174	0.9888493291476588	1.4525602967634117	0.08165061649248136	1.0014255457998378	1.4395465494596573	0.06805711018827101	1.3041758165107178	1.4331558227005239	0.18469984247879495	0.5590520138131377	0.37501575818864546	0.19266324034117513	0.40272431691940064	0.17105620341294764	0.20154983566886933	0.4284744672618738	0.30639108592639236	0.33701129666325536	0.6416935376441723	0.40148170289878976	0.37543944046045347	0.8395110222860721	0.6073684083603555	0.4198015631691522	0.6040037441685333	0.67529388964477	0.39710047027383105	0.4655859282339118	0.630599927982728	0.4087122189893049	0.4491112172997608	0.6560610303883464	0.396599875357616	0.48820722945583717	0.7133464319383995	0.05931582549064779	0.5798751401405291	0.4437877948428923	0.05409644998786954	0.7075575498989769	0.6645621571123207	0.11037483087320812	0.5636962604574143	0.7016230324948455	0.14789700616767357	0.454628329968637	0.6509510678070072	0.1359949816753112	0.4353356823472309	0.6775607724966685	0.13238486936286786	0.5045058065377365	0.711720122626662
